<svg xmlns="http://www.w3.org/2000/svg" viewBox="0 0 160 29.92"><title>ui-logo-horiz-compact</title><path d="M59.78,12.44l-3.93,9v0h-1.6v0l-3.8-9,0-.07h2.24v0l2.43,6.4,2.59-6.4v0h2.12Zm4-.3c2.61,0,4.29,1.84,4.29,4.68v.6H61.74a2.65,2.65,0,0,0,2.9,2.48,4.86,4.86,0,0,0,2.51-.73l.06,0,0,.07a8.57,8.57,0,0,0,.55,1.39l0,0,0,0a6.74,6.74,0,0,1-3.52,1,4.51,4.51,0,0,1-4.83-4.79c0-2.77,1.79-4.7,4.35-4.7m2.07,3.72a2.06,2.06,0,1,0-4.12,0Zm9.7-3.29,0,0a2.9,2.9,0,0,0-1.57-.46,3.83,3.83,0,0,0-2.6,1.24l-.25-.92v0H69.18v9.07h2.26v-6.5a3.1,3.1,0,0,1,1.83-.86h0a2.45,2.45,0,0,1,1.3.34l.06,0,0-.07a4.56,4.56,0,0,1,.82-1.78ZM79.48,16c-.92-.36-1.73-.66-1.73-1.3s.94-.85,1.49-.85a6,6,0,0,1,2.59.57l.07,0v-.08A8.75,8.75,0,0,1,82,12.67v0h0a7.48,7.48,0,0,0-2.76-.48c-2.19,0-3.61,1-3.61,2.61,0,1.8,1.46,2.35,2.75,2.83,1,.35,1.77.66,1.77,1.4s-.68,1-1.76,1a4.2,4.2,0,0,1-2.55-.84l-.05,0,0,.06A11,11,0,0,1,75,20.76l0,0,0,0a6.72,6.72,0,0,0,3.43.8c2.47,0,3.94-1.05,3.94-2.8S80.76,16.44,79.48,16M48.55,8.51A1.37,1.37,0,0,0,47.1,9.8,1.44,1.44,0,0,0,50,9.8a1.35,1.35,0,0,0-1.42-1.29m-15,8.35A2.81,2.81,0,0,1,32.82,19a3.15,3.15,0,0,1-2.4.81A2.93,2.93,0,0,1,28.18,19a3.15,3.15,0,0,1-.86-2.28V8.49H24.88v8.35a4.49,4.49,0,0,0,1.35,3.58,6.21,6.21,0,0,0,4.15,1.21,6.16,6.16,0,0,0,4.33-1.36A4.48,4.48,0,0,0,36,16.88V8.49H33.58ZM43,12.14a5.81,5.81,0,0,0-3.46,1.2l-.24-.94v0h-1.9v9.07h2.26V15.06A4.81,4.81,0,0,1,42.25,14c1.34,0,1.49,1.15,1.49,2v5.42H46v-6a3,3,0,0,0-3-3.26m4.46,9.3h2.26V12.37H47.42Zm36.07,0h2.26V12.37H83.49Zm44.42-13h2.26V20.91h0a8.43,8.43,0,0,1-3.62.71c-3.23,0-5.31-1.82-5.31-4.64s2.26-4.85,5.37-4.85a9.28,9.28,0,0,1,1.33.1Zm0,5.53a4.45,4.45,0,0,0-1.24-.14,3,3,0,1,0,.08,6,4.17,4.17,0,0,0,1.16-.16Zm11.36,4.65a9.13,9.13,0,0,0,.18,2.71l0,.07h-1.91l0,0-.39-.77a4.39,4.39,0,0,1-2.89,1,2.94,2.94,0,0,1-3.19-2.88c0-1.84,1.46-2.91,4.12-3l1.79-.05v-.22c0-1.37-1.05-1.66-1.93-1.66a4.81,4.81,0,0,0-2.53.72l-.05,0,0,0-.73-1.27,0,0,0,0a6.59,6.59,0,0,1,3.75-1c2.5,0,3.77,1.09,3.77,3.24v3.28M137,17.25l-1.56.05c-1.39,0-2.07.46-2.07,1.3s.64,1.34,1.66,1.34a3,3,0,0,0,2-.7Zm-19.22,4.19h2.4V8.49h-2.4Zm28.56-9.3A5.52,5.52,0,0,0,143,13.33V8.48h-2.26v13H143V15.1a4.28,4.28,0,0,1,2.55-1.1c1.35,0,1.53,1,1.53,2v5.4h2.26v-6c0-3-2.14-3.35-3.06-3.35m-32.28.2a2.73,2.73,0,0,0-2.79,2.38l-.12.63h-1v0l-.35,1.19,0,.07H111c0,.3-.09.6-.14.89-.39,2.57-.65,4.27-2.37,5.83l0,0,0,0,.94,1,0,0,0,0c2.25-1.85,2.67-4.6,3.07-7.27l.07-.49h1.29v0l.46-1.19,0-.06h-1.56l.1-.5c.15-.75.56-1.16,1.16-1.16A1.72,1.72,0,0,1,115,14l0,0,0-.05.61-1.11,0,0,0,0a3.22,3.22,0,0,0-1.63-.42m-13.48.07a36.32,36.32,0,0,1-2.24,6.77c-1.16-2.53-2.87-6.74-2.88-6.78l0,0H90.85V9.71l-.06,0-2.16.61h0v2h-1.7V14h1.7v5.55c0,1.34.84,2.08,2.36,2.08a5.94,5.94,0,0,0,3.11-.95l0,0,0,0-.6-1.29,0-.05,0,0a3.23,3.23,0,0,1-1.64.54c-.62,0-.91-.31-.91-1V14h3.06c1.38,3,3.21,7,3.29,7.27a6.71,6.71,0,0,1-.86,1.53,7.69,7.69,0,0,1-2.74,2.38l0,0,0,0,1,1.36,0,0,0,0a7.93,7.93,0,0,0,3.41-3.07,25.45,25.45,0,0,0,2.46-4.78,45.85,45.85,0,0,0,2-6.34l0-.06h-2ZM84.62,8.51A1.36,1.36,0,0,0,83.18,9.8,1.44,1.44,0,0,0,86,9.8a1.35,1.35,0,0,0-1.42-1.29m24.93,9.37a3.74,3.74,0,0,1-1.2,2.85,3.44,3.44,0,0,1-2.34.9,2.73,2.73,0,0,1-2-.72,2.81,2.81,0,0,1-.73-2,3.78,3.78,0,0,1,1.07-2.7,3.4,3.4,0,0,1,2.48-1,2.69,2.69,0,0,1,2,.74,2.81,2.81,0,0,1,.68,1.93m-2.35,2a2.72,2.72,0,0,0,.71-2,1.45,1.45,0,0,0-.34-1.06,1.19,1.19,0,0,0-.87-.32,1.54,1.54,0,0,0-1.12.51,2.83,2.83,0,0,0-.62,1.89,1.47,1.47,0,0,0,.35,1.06,1.2,1.2,0,0,0,.86.32,1.47,1.47,0,0,0,1-.42m51.43-6.46A4.66,4.66,0,0,1,160,16.88a4.72,4.72,0,0,1-1.41,3.51,5,5,0,0,1-3.44,1.24,4.88,4.88,0,0,1-3.32-1.11,4.64,4.64,0,0,1-1.5-3.59,4.78,4.78,0,0,1,1.43-3.53,4.89,4.89,0,0,1,3.39-1.26,4.84,4.84,0,0,1,3.48,1.28M155.17,20c1.54,0,2.51-1.18,2.51-3.07s-1-3.06-2.55-3.06-2.49,1.15-2.49,3.06,1,3.07,2.53,3.07"/><path d="M.91.91h13.6V7.25H11.79V22.67h2.72V29H.91V22.67H3.63V7.25H.91ZM0,0V8.16H2.72v13.6H0v8.16H15.41V21.76H12.69V8.16h2.72V0ZM4.53,23.57H1.81v4.54H13.6V23.57H10.88V6.35H13.6V1.81H1.81V6.35H4.53Z" style="fill:#f1b300"/></svg>